<svg width="17" height="32" viewBox="0 0 17 32" fill="none" xmlns="http://www.w3.org/2000/svg">
<path fill-rule="evenodd" clip-rule="evenodd" d="M5.16748 6.51367C5.16748 7.27344 5.16748 11.6621 5.16748 11.6621H0.432617V17.0195H5.16748V31.5H11.1465V17.0195H15.4663C15.4663 17.0195 15.8467 14.3574 16.0537 11.6279C15.501 11.6279 11.1807 11.6279 11.1807 11.6279C11.1807 11.6279 11.1807 7.27344 11.1807 6.75586C11.1807 6.20215 11.8721 5.51074 12.563 5.51074C13.2539 5.51074 15.0171 5.51074 16.3652 5.51074C16.3652 4.78516 16.3652 2.78125 16.3652 0.5C14.5674 0.5 12.667 0.5 11.7334 0.5C5.02881 0.5 5.16748 5.71875 5.16748 6.51367Z" fill="#FEFEFE"/>
</svg>
