<svg width="32" height="32" viewBox="0 0 32 32" fill="none" xmlns="http://www.w3.org/2000/svg">
<path fill-rule="evenodd" clip-rule="evenodd" d="M21.8193 0.5H10.207C7.5459 0.5 5.16113 1.57031 3.43359 3.29883C1.70508 5.02734 0.633789 7.41211 0.633789 10.0391V21.6504C0.633789 24.3115 1.70508 26.6963 3.43359 28.4238C5.16113 30.1523 7.5459 31.2236 10.207 31.2236H21.8193C24.4463 31.2236 26.8311 30.1523 28.5586 28.4238C30.2871 26.6963 31.3584 24.3115 31.3584 21.6504V10.0391C31.3584 7.41211 30.2871 5.02734 28.5586 3.29883C26.8311 1.57031 24.4463 0.5 21.8193 0.5ZM25.3096 7.72266C25.3096 7.10059 24.7568 6.58301 24.1357 6.58301C23.4785 6.58301 22.96 7.10059 22.96 7.72266C22.96 8.37891 23.4785 8.89844 24.1357 8.89844C24.7568 8.89844 25.3096 8.37891 25.3096 7.72266ZM16.0127 8.24219C13.9053 8.24219 12.0039 9.10547 10.6221 10.4873C9.23926 11.8701 8.41016 13.7715 8.41016 15.8438C8.41016 17.9531 9.23926 19.8535 10.6221 21.2354C12.0039 22.6182 13.9053 23.4473 16.0127 23.4473C18.0869 23.4473 19.9873 22.6182 21.3701 21.2354C22.7529 19.8535 23.6162 17.9531 23.6162 15.8438C23.6162 13.7715 22.7529 11.8701 21.3701 10.4873C19.9873 9.10547 18.0869 8.24219 16.0127 8.24219ZM16.0127 20.8213C14.6318 20.8213 13.3867 20.2676 12.4883 19.3691C11.5898 18.4707 11.0361 17.2266 11.0361 15.8438C11.0361 14.4971 11.5898 13.252 12.4883 12.3535C13.3867 11.4551 14.6318 10.8672 16.0127 10.8672C17.3604 10.8672 18.6055 11.4551 19.5039 12.3535C20.4365 13.252 20.9902 14.4971 20.9902 15.8438C20.9902 17.2266 20.4023 18.4707 19.5039 19.3691C18.6055 20.2676 17.3604 20.8213 16.0127 20.8213ZM28.7314 21.6504C28.7314 23.5859 27.9365 25.3145 26.6924 26.5586C25.4482 27.8027 23.7197 28.5977 21.8193 28.5977H10.207C8.27246 28.5977 6.54395 27.8027 5.2998 26.5586C4.05566 25.3145 3.26074 23.5859 3.26074 21.6504V10.0391C3.26074 8.13672 4.05566 6.40918 5.2998 5.16602C6.54395 3.9209 8.27246 3.12598 10.207 3.12598H21.8193C23.7197 3.12598 25.4482 3.9209 26.6924 5.16602C27.9365 6.40918 28.7314 8.13672 28.7314 10.0391V21.6504Z" fill="#FEFEFE"/>
</svg>
