<svg width="26" height="27" viewBox="0 0 26 27" fill="none" xmlns="http://www.w3.org/2000/svg">
<path fill-rule="evenodd" clip-rule="evenodd" d="M3.2417 0.5C4.9353 0.5 6.31763 1.88232 6.31763 3.57568C6.31763 5.33838 4.83154 6.65161 3.2417 6.61719C1.61743 6.65161 0.166016 5.30371 0.166016 3.54102C0.166016 1.88232 1.54834 0.5 3.2417 0.5Z" fill="#FEFEFE"/>
<path fill-rule="evenodd" clip-rule="evenodd" d="M5.03931 26.0049H1.44507C0.960938 26.0049 0.581055 25.6248 0.581055 25.1753V9.83057C0.581055 9.34692 0.960938 8.9668 1.44507 8.9668H5.03931C5.48877 8.9668 5.86865 9.34692 5.86865 9.83057V25.1753C5.86865 25.6248 5.48877 26.0049 5.03931 26.0049Z" fill="#FEFEFE"/>
<path fill-rule="evenodd" clip-rule="evenodd" d="M25.7407 14.3589C25.7407 11.1445 23.1484 8.55273 19.8999 8.55273H19.0015C17.2388 8.55273 15.6836 9.4165 14.7505 10.7646C14.6465 10.9028 14.543 11.041 14.4741 11.2139C14.4395 11.2139 14.4048 11.2139 14.4048 11.2139V9.31299C14.4048 9.14014 14.2666 8.96729 14.0591 8.96729H9.56641C9.39355 8.96729 9.2207 9.14014 9.2207 9.31299V25.6602C9.2207 25.8325 9.39355 26.0054 9.56641 26.0054H14.1631C14.3701 26.0054 14.5083 25.8325 14.5083 25.6602V16.2251C14.5083 14.6006 15.8218 13.2529 17.4463 13.2183C18.2754 13.2183 19.0361 13.5293 19.5889 14.0825C20.1069 14.6353 20.4526 15.3608 20.4526 16.1904V25.6602C20.4526 25.8325 20.5913 26.0054 20.7983 26.0054H25.395C25.5679 26.0054 25.7407 25.8672 25.7407 25.6602V14.3589V14.3589Z" fill="#FEFEFE"/>
</svg>
