<svg width="301" height="27" viewBox="0 0 301 27" fill="none" xmlns="http://www.w3.org/2000/svg">
<path d="M17 26.0001H0.280029V0.654053H6.81603V20.3001H17V26.0001ZM54.354 26.4561C50.402 26.4561 47.4127 25.4807 45.386 23.5301C43.3594 21.5794 42.346 18.9827 42.346 15.7401V0.654053H48.996V15.5121C48.996 17.0574 49.4584 18.3051 50.383 19.2551C51.3077 20.2051 52.6314 20.6801 54.354 20.6801C56.0514 20.6801 57.3624 20.2051 58.287 19.2551C59.2117 18.3051 59.674 17.0574 59.674 15.5121V0.654053H66.286V15.7021C66.286 18.9701 65.279 21.5794 63.265 23.5301C61.251 25.4807 58.2807 26.4561 54.354 26.4561ZM117.206 26.0001H110.898L100.182 11.3321V26.0001H93.646V0.654053H100.372L110.632 14.6001V0.654053H117.206V26.0001ZM169.19 26.0001H161.78L160.526 22.3521H150.532L149.278 26.0001H141.868L151.406 0.654053H159.614L169.19 26.0001ZM158.74 16.6521L155.51 7.11405L152.28 16.6521H158.74ZM215.474 26.0001H207.988L203.732 17.4881H200.388V26.0001H193.852V0.654053H206.544C209.28 0.654053 211.433 1.45205 213.004 3.04805C214.575 4.64405 215.36 6.65805 215.36 9.09005C215.36 11.1167 214.86 12.7697 213.859 14.0491C212.858 15.3284 211.674 16.2087 210.306 16.6901L215.474 26.0001ZM205.556 11.7881C206.443 11.7881 207.19 11.5474 207.798 11.0661C208.406 10.5847 208.71 9.91339 208.71 9.05205C208.71 8.21605 208.406 7.55739 207.798 7.07605C207.19 6.59472 206.443 6.35405 205.556 6.35405H200.388V11.7881H205.556ZM248.306 26.0001H241.77V0.654053H248.306V26.0001ZM300.29 26.0001H292.88L291.626 22.3521H281.632L280.378 26.0001H272.968L282.506 0.654053H290.714L300.29 26.0001ZM289.84 16.6521L286.61 7.11405L283.38 16.6521H289.84Z" fill="white"/>
</svg>
