<svg width="24" height="36" viewBox="0 0 24 36" fill="none" xmlns="http://www.w3.org/2000/svg">
<path fill-rule="evenodd" clip-rule="evenodd" d="M11.7839 35.1248C13.05 34.1339 19.9309 22.1336 21.0869 19.8767C22.298 17.5096 23.2888 15.0325 23.5641 12.8856C23.7292 11.3443 23.5641 9.74795 22.7934 7.98643C21.9677 5.89464 20.4264 3.96798 18.4997 2.5918C16.518 1.16057 14.151 0.5 11.7839 0.5C9.4169 0.5 7.10491 1.16057 5.12321 2.5918C3.19655 3.96798 1.65523 5.89464 0.774473 7.98643C0.0588577 9.74795 -0.106284 11.3443 0.0588577 12.8856C0.279047 15.0325 1.32495 17.5096 2.53599 19.8767C3.69198 22.1336 10.5729 34.1339 11.7839 35.1248ZM11.7839 7.54606C14.4262 7.54606 16.518 9.63785 16.518 12.2251C16.518 14.8673 14.4262 16.9591 11.7839 16.9591C9.19671 16.9591 7.10491 14.8673 7.10491 12.2251C7.10491 9.63785 9.19671 7.54606 11.7839 7.54606Z" fill="white"/>
</svg>
