<svg width="128" height="10" viewBox="0 0 128 10" fill="none" xmlns="http://www.w3.org/2000/svg">
<path d="M9.958 0.705078L8.008 7.86808L5.863 0.705078H5.083L3.016 7.86808L1.001 0.705078H0L2.626 10.0001H3.406L5.486 2.79808L7.644 10.0001H8.424L10.946 0.705078H9.958ZM15.886 10.0001H22.009V9.02508H16.861V5.84008H20.618V4.86508H16.861V1.68008H22.009V0.705078H15.886V10.0001ZM32.11 5.19008C32.643 4.70908 32.968 4.02008 32.968 3.26608C32.968 1.86208 31.824 0.705078 30.407 0.705078H26.975V9.62308L26.949 10.0001H30.875C32.279 10.0001 33.436 8.85608 33.436 7.43908C33.436 6.47708 32.903 5.63208 32.11 5.19008ZM30.875 9.02508H27.937V5.84008H30.875C31.746 5.84008 32.461 6.55508 32.461 7.43908C32.461 8.31008 31.746 9.02508 30.875 9.02508ZM30.407 4.86508H27.937V1.68008H30.407C31.291 1.68008 32.006 2.39508 32.006 3.26608C32.006 4.15008 31.291 4.86508 30.407 4.86508ZM38.909 10.0001C39.195 10.0001 39.442 9.76608 39.442 9.46708C39.442 9.18108 39.195 8.93408 38.909 8.93408C38.61 8.93408 38.376 9.18108 38.376 9.46708C38.376 9.76608 38.61 10.0001 38.909 10.0001ZM59.579 6.34708V6.39908C59.579 7.85508 58.344 9.03808 56.888 9.03808C55.419 9.03808 54.197 7.85508 54.197 6.38608V0.705078H53.222V6.34708V6.71108H53.235C53.43 8.55708 54.99 10.0001 56.888 10.0001C58.903 10.0001 60.541 8.36208 60.541 6.34708V0.705078H59.579V6.34708ZM69.628 1.68008V0.705078H65.481V1.68008H67.067V9.03808H65.481V10.0001H69.628V9.03808H68.042V1.68008H69.628ZM75.101 10.0001C75.387 10.0001 75.634 9.76608 75.634 9.46708C75.634 9.18108 75.387 8.93408 75.101 8.93408C74.802 8.93408 74.568 9.18108 74.568 9.46708C74.568 9.76608 74.802 10.0001 75.101 10.0001ZM92.378 0.705078H89.414V10.0001H92.378C94.939 10.0001 97.019 7.92008 97.019 5.34608C97.019 2.78508 94.939 0.705078 92.378 0.705078ZM92.378 9.03808H90.389V1.66708H92.378C94.406 1.66708 96.057 3.31808 96.057 5.34608C96.057 7.38708 94.406 9.03808 92.378 9.03808ZM101.959 10.0001H108.082V9.02508H102.934V5.84008H106.691V4.86508H102.934V1.68008H108.082V0.705078H101.959V10.0001ZM117.182 8.34908L114.049 0.705078H113.022L116.818 10.0001H117.546L121.29 0.705078H120.263L117.182 8.34908ZM126.763 10.0001C127.049 10.0001 127.296 9.76608 127.296 9.46708C127.296 9.18108 127.049 8.93408 126.763 8.93408C126.464 8.93408 126.23 9.18108 126.23 9.46708C126.23 9.76608 126.464 10.0001 126.763 10.0001Z" fill="white"/>
</svg>
