<svg width="33" height="27" viewBox="0 0 33 27" fill="none" xmlns="http://www.w3.org/2000/svg">
<path fill-rule="evenodd" clip-rule="evenodd" d="M0.39502 23.6899C3.2981 25.5215 6.75403 26.5928 10.452 26.5928C20.8201 26.5928 29.2527 18.1602 29.2527 7.79199C29.2527 7.51562 29.2527 7.27344 29.2527 7.03125C29.6329 6.7207 31.9484 4.85449 32.5013 3.64502C32.5013 3.64502 30.6351 4.43945 28.7689 4.6123C28.9417 4.50879 31.3263 2.88477 31.6373 0.949219C31.6373 0.949219 30.324 1.6748 28.4578 2.29736C28.1468 2.40039 27.8011 2.50439 27.4901 2.60791C26.2805 1.29492 24.5525 0.5 22.6517 0.5C19.0229 0.5 16.0507 3.47217 16.0507 7.10059C16.0507 7.61914 16.1199 8.10303 16.2236 8.58691C15.7051 8.58691 7.96368 8.1377 2.67596 1.74414C2.67596 1.74414 -0.468994 6.06445 4.57678 10.4873C4.57678 10.4873 3.02161 10.4189 1.70837 9.62402C1.70837 9.62402 1.22449 14.8423 6.92688 16.1904C6.92688 16.1904 5.82092 16.605 4.0238 16.2939C4.0238 16.2939 5.02606 20.5103 10.0719 20.9248C10.0719 20.9248 6.09741 24.5195 0.39502 23.6899Z" fill="white"/>
</svg>
