<svg width="35" height="25" viewBox="0 0 35 25" fill="none" xmlns="http://www.w3.org/2000/svg">
<path fill-rule="evenodd" clip-rule="evenodd" d="M34.127 4.26709C33.7468 2.78076 32.5718 1.64062 31.0857 1.22559C28.4246 0.5 17.6764 0.5 17.6764 0.5C17.6764 0.5 6.92816 0.5 4.23248 1.22559C2.78094 1.60596 1.60596 2.78076 1.19122 4.26709C0.5 6.96289 0.5 12.5269 0.5 12.5269C0.5 12.5269 0.5 18.1255 1.19122 20.7866C1.60596 22.2727 2.7464 23.4131 4.23248 23.8281C6.92816 24.5537 17.6764 24.5537 17.6764 24.5537C17.6764 24.5537 28.4246 24.5537 31.0857 23.8628C32.5718 23.4478 33.7468 22.3074 34.127 20.8213C34.8527 18.1255 34.8527 12.5613 34.8527 12.5613C34.8527 12.5613 34.8527 6.96289 34.127 4.26709ZM14.2549 17.6763L23.1714 12.5269L14.2549 7.37744V17.6763Z" fill="#FEFEFE"/>
</svg>
