<?xml version="1.0" encoding="utf-8"?><svg viewBox="0 0 2000 2000" xmlns="http://www.w3.org/2000/svg" xmlns:xlink="http://www.w3.org/1999/xlink"><style>:root>svg{display:none}:root>svg:target{display:block}</style><svg viewBox="0 0 14.849 33.354" id="arrow" xmlns="http://www.w3.org/2000/svg"><path d="M7.425 33.354v-33M.354 7.425L7.425.354m7.071 7.071L7.425.354"/></svg><svg viewBox="0 0 500 500" id="cub" xmlns="http://www.w3.org/2000/svg"><path d="M0 0h500v500H0z"/></svg><svg viewBox="0 0 5000 5000" id="cub-green" xmlns="http://www.w3.org/2000/svg"><path d="M0 0h5000v5000H0z"/></svg><svg viewBox="0 0 17 32" id="facebook" xmlns="http://www.w3.org/2000/svg"><path fill-rule="evenodd" clip-rule="evenodd" d="M5.167 6.514v5.148H.433v5.357h4.734V31.5h5.98V17.02h4.32s.38-2.663.587-5.392H11.18V6.756c0-.554.691-1.245 1.382-1.245h3.802V.5h-4.632C5.03.5 5.167 5.719 5.167 6.514z"/></svg><svg viewBox="0 0 502.664 502.664" id="icon" xmlns="http://www.w3.org/2000/svg"><path d="M153.821 358.226L0 274.337v-46.463l153.821-83.414v54.574L46.636 250.523l107.185 53.431v54.272zm26.273 29.358L282.103 115.08h32.227L212.084 387.584h-31.99zm168.749-29.358v-54.272l107.164-52.999-107.164-52.59v-53.927l153.821 83.522v46.183l-153.821 84.083z"/></svg><svg viewBox="0 0 32 32" id="instagram" xmlns="http://www.w3.org/2000/svg"><path fill-rule="evenodd" clip-rule="evenodd" d="M21.82.5H10.206a9.525 9.525 0 00-6.773 2.799 9.51 9.51 0 00-2.8 6.74V21.65a9.526 9.526 0 002.8 6.774 9.526 9.526 0 006.773 2.8h11.612a9.506 9.506 0 006.74-2.8 9.526 9.526 0 002.8-6.774V10.04a9.51 9.51 0 00-2.8-6.741A9.505 9.505 0 0021.819.5zm3.49 7.223c0-.622-.553-1.14-1.174-1.14-.657 0-1.176.518-1.176 1.14 0 .656.518 1.175 1.176 1.175.62 0 1.174-.52 1.174-1.175zm-9.297.52a7.6 7.6 0 00-5.39 2.244 7.55 7.55 0 00-2.213 5.357c0 2.11.83 4.01 2.212 5.391a7.568 7.568 0 005.39 2.212 7.55 7.55 0 005.358-2.212 7.597 7.597 0 002.246-5.391c0-2.072-.863-3.974-2.246-5.357-1.383-1.382-3.283-2.245-5.357-2.245zm0 12.578a4.961 4.961 0 01-3.524-8.468c.898-.898 2.143-1.486 3.524-1.486 1.347 0 2.592.588 3.49 1.486a4.834 4.834 0 011.487 3.49c0 1.384-.588 2.628-1.486 3.526a4.943 4.943 0 01-3.491 1.452zm12.718.83a6.92 6.92 0 01-2.039 4.908 6.9 6.9 0 01-4.873 2.039H10.207a6.92 6.92 0 01-4.907-2.04 6.92 6.92 0 01-2.04-4.908V10.04c0-1.903.796-3.63 2.04-4.874a6.916 6.916 0 014.907-2.04h11.612c1.9 0 3.63.795 4.873 2.04a6.895 6.895 0 012.04 4.873V21.65z"/></svg><svg viewBox="0 0 26 27" id="linkedin" xmlns="http://www.w3.org/2000/svg"><path fill-rule="evenodd" clip-rule="evenodd" d="M3.242.5a3.083 3.083 0 013.076 3.076c0 1.762-1.486 3.076-3.076 3.041C1.617 6.652.166 5.304.166 3.541.166 1.882 1.548.5 3.242.5zM5.04 26.005H1.444c-.484 0-.864-.38-.864-.83V9.831c0-.484.38-.864.864-.864H5.04c.45 0 .83.38.83.864v15.344c0 .45-.38.83-.83.83zm20.7-11.646c0-3.214-2.592-5.806-5.84-5.806h-.898a5.143 5.143 0 00-4.251 2.212 1.938 1.938 0 00-.277.449h-.07V9.313a.346.346 0 00-.345-.346H9.566a.372.372 0 00-.345.346V25.66c0 .172.173.345.345.345h4.597a.346.346 0 00.345-.345v-9.435a3.018 3.018 0 012.938-3.007c.83 0 1.59.311 2.143.864.518.553.864 1.279.864 2.108v9.47c0 .172.138.345.345.345h4.597a.346.346 0 00.346-.345v-11.3z"/></svg><svg viewBox="0 0 301 27" id="logo" xmlns="http://www.w3.org/2000/svg"><path d="M17 26H.28V.654h6.536V20.3H17V26zm37.354.456c-3.952 0-6.941-.975-8.968-2.926-2.027-1.95-3.04-4.547-3.04-7.79V.654h6.65v14.858c0 1.545.462 2.793 1.387 3.743.925.95 2.248 1.425 3.971 1.425 1.697 0 3.008-.475 3.933-1.425.925-.95 1.387-2.198 1.387-3.743V.654h6.612v15.048c0 3.268-1.007 5.877-3.021 7.828-2.014 1.95-4.984 2.926-8.911 2.926zM117.206 26h-6.308l-10.716-14.668V26h-6.536V.654h6.726l10.26 13.946V.654h6.574V26zm51.984 0h-7.41l-1.254-3.648h-9.994L149.278 26h-7.41L151.406.654h8.208L169.19 26zm-10.45-9.348l-3.23-9.538-3.23 9.538h6.46zM215.474 26h-7.486l-4.256-8.512h-3.344V26h-6.536V.654h12.692c2.736 0 4.889.798 6.46 2.394 1.571 1.596 2.356 3.61 2.356 6.042 0 2.027-.5 3.68-1.501 4.96-1.001 1.278-2.185 2.159-3.553 2.64l5.168 9.31zm-9.918-14.212c.887 0 1.634-.24 2.242-.722.608-.481.912-1.153.912-2.014 0-.836-.304-1.495-.912-1.976-.608-.481-1.355-.722-2.242-.722h-5.168v5.434h5.168zM248.306 26h-6.536V.654h6.536V26zm51.984 0h-7.41l-1.254-3.648h-9.994L280.378 26h-7.41L282.506.654h8.208L300.29 26zm-10.45-9.348l-3.23-9.538-3.23 9.538h6.46z"/></svg><svg viewBox="0 0 24 36" id="map" xmlns="http://www.w3.org/2000/svg"><path fill-rule="evenodd" clip-rule="evenodd" d="M11.784 35.125c1.266-.991 8.147-12.991 9.303-15.248 1.211-2.367 2.202-4.844 2.477-6.991.165-1.542 0-3.138-.77-4.9-.826-2.091-2.368-4.018-4.294-5.394C16.518 1.16 14.15.5 11.784.5s-4.68.66-6.66 2.092C3.196 3.968 1.654 5.895.773 7.986c-.715 1.762-.88 3.358-.715 4.9.22 2.147 1.266 4.624 2.477 6.99 1.156 2.258 8.037 14.258 9.248 15.249zm0-27.579c2.642 0 4.734 2.092 4.734 4.68a4.699 4.699 0 01-4.734 4.733c-2.587 0-4.68-2.092-4.68-4.734a4.675 4.675 0 014.68-4.679z"/></svg><svg viewBox="0 0 128 10" id="sub-logo" xmlns="http://www.w3.org/2000/svg"><path d="M9.958.705l-1.95 7.163L5.863.705h-.78L3.016 7.868 1.001.705H0L2.626 10h.78l2.08-7.202L7.644 10h.78L10.946.705h-.988zM15.886 10h6.123v-.975h-5.148V5.84h3.757v-.975h-3.757V1.68h5.148V.705h-6.123V10zM32.11 5.19c.533-.48.858-1.17.858-1.924a2.566 2.566 0 00-2.561-2.56h-3.432v8.917l-.026.377h3.926a2.566 2.566 0 002.561-2.56c0-.963-.533-1.808-1.326-2.25zm-1.235 3.835h-2.938V5.84h2.938a1.592 1.592 0 010 3.185zm-.468-4.16h-2.47V1.68h2.47c.884 0 1.599.715 1.599 1.586 0 .884-.715 1.6-1.599 1.6zM38.909 10a.535.535 0 00.533-.533.544.544 0 00-.533-.533.535.535 0 00-.533.533c0 .3.234.533.533.533zm20.67-3.653V6.4c0 1.456-1.235 2.64-2.691 2.64-1.469 0-2.691-1.184-2.691-2.653V.706h-.975V6.71h.013A3.678 3.678 0 0056.888 10a3.656 3.656 0 003.653-3.654V.705h-.962v5.642zM69.628 1.68V.705h-4.147v.975h1.586v7.358h-1.586V10h4.147v-.962h-1.586V1.68h1.586zM75.101 10a.535.535 0 00.533-.533.544.544 0 00-.533-.533.535.535 0 00-.533.533c0 .3.234.533.533.533zM92.378.705h-2.964V10h2.964a4.647 4.647 0 004.641-4.654 4.644 4.644 0 00-4.641-4.64zm0 8.333h-1.989v-7.37h1.989a3.687 3.687 0 010 7.371zm9.581.962h6.123v-.975h-5.148V5.84h3.757v-.975h-3.757V1.68h5.148V.705h-6.123V10zm15.223-1.65L114.049.704h-1.027L116.818 10h.728L121.29.705h-1.027l-3.081 7.644zm9.581 1.65a.535.535 0 00.533-.533.544.544 0 00-.533-.533.535.535 0 00-.533.533c0 .3.234.533.533.533z"/></svg><svg viewBox="0 0 33 27" id="twiter" xmlns="http://www.w3.org/2000/svg"><path fill-rule="evenodd" clip-rule="evenodd" d="M.395 23.69a18.81 18.81 0 0010.057 2.903c10.368 0 18.8-8.433 18.8-18.801v-.76c.38-.311 2.696-2.178 3.25-3.387 0 0-1.867.794-3.733.967.173-.103 2.557-1.727 2.868-3.663 0 0-1.313.726-3.18 1.348-.31.103-.656.207-.967.31A6.55 6.55 0 0022.652.5c-3.63 0-6.601 2.972-6.601 6.6 0 .52.069 1.003.173 1.487-.519 0-8.26-.45-13.548-6.843 0 0-3.145 4.32 1.9 8.743 0 0-1.554-.068-2.868-.863 0 0-.484 5.218 5.219 6.566 0 0-1.106.415-2.903.104 0 0 1.002 4.216 6.048 4.63 0 0-3.975 3.596-9.677 2.766z"/></svg><svg viewBox="0 0 35 25" id="you-tube" xmlns="http://www.w3.org/2000/svg"><path fill-rule="evenodd" clip-rule="evenodd" d="M34.127 4.267c-.38-1.486-1.555-2.626-3.041-3.041C28.425.5 17.676.5 17.676.5S6.928.5 4.232 1.226c-1.451.38-2.626 1.555-3.04 3.041C.5 6.963.5 12.527.5 12.527s0 5.598.691 8.26a4.355 4.355 0 003.041 3.041c2.696.726 13.444.726 13.444.726s10.749 0 13.41-.691c1.486-.415 2.66-1.556 3.041-3.042.726-2.696.726-8.26.726-8.26s0-5.598-.726-8.294zm-19.872 13.41l8.916-5.15-8.916-5.15v10.3z"/></svg></svg>